<svg width="318" height="58" viewBox="0 0 318 58" fill="none" xmlns="http://www.w3.org/2000/svg">
<path d="M219.228 57.2434C216.699 57.2434 214.445 56.8046 212.466 55.9271C210.487 55.0325 208.922 53.7162 207.769 51.9784C206.633 50.2235 206.065 48.0383 206.065 45.4231C206.065 43.2208 206.47 41.3712 207.278 39.8743C208.087 38.3774 209.188 37.173 210.582 36.2611C211.976 35.3492 213.558 34.6609 215.331 34.1964C217.12 33.7318 218.995 33.4049 220.957 33.2157C223.262 32.9748 225.121 32.7511 226.532 32.5446C227.942 32.321 228.966 31.9941 229.603 31.5639C230.239 31.1338 230.558 30.4972 230.558 29.6541V29.4992C230.558 27.8647 230.042 26.6001 229.009 25.7054C227.994 24.8107 226.549 24.3634 224.673 24.3634C222.695 24.3634 221.12 24.8021 219.95 25.6796C218.78 26.5399 218.006 27.6238 217.628 28.9315L207.459 28.1056C207.975 25.6968 208.99 23.6149 210.504 21.8599C212.019 20.0877 213.971 18.7285 216.363 17.7822C218.772 16.8187 221.559 16.3369 224.725 16.3369C226.927 16.3369 229.035 16.595 231.048 17.1112C233.078 17.6273 234.876 18.4274 236.442 19.5114C238.025 20.5953 239.272 21.989 240.184 23.6923C241.096 25.3785 241.552 27.4002 241.552 29.7573V56.4949H231.125V50.9977H230.816C230.179 52.2365 229.327 53.3291 228.261 54.2754C227.194 55.2045 225.912 55.9357 224.415 56.4691C222.918 56.9853 221.189 57.2434 219.228 57.2434ZM222.376 49.6557C223.994 49.6557 225.422 49.3374 226.661 48.7008C227.899 48.047 228.872 47.1695 229.577 46.0683C230.282 44.9671 230.635 43.7197 230.635 42.3261V38.1193C230.291 38.343 229.818 38.5494 229.216 38.7387C228.631 38.9107 227.968 39.0742 227.228 39.229C226.489 39.3667 225.749 39.4957 225.009 39.6162C224.269 39.7194 223.598 39.814 222.996 39.9001C221.705 40.0893 220.578 40.3904 219.615 40.8034C218.651 41.2163 217.903 41.7755 217.37 42.4809C216.836 43.1691 216.569 44.0294 216.569 45.0618C216.569 46.5587 217.111 47.7028 218.195 48.4943C219.297 49.2686 220.69 49.6557 222.376 49.6557Z" fill="black"/>
<path d="M191.756 56.4945V16.8527H202.75V56.4945H191.756ZM197.279 11.7426C195.644 11.7426 194.242 11.2006 193.072 10.1167C191.919 9.01551 191.343 7.69927 191.343 6.16797C191.343 4.65387 191.919 3.35484 193.072 2.27089C194.242 1.16972 195.644 0.619141 197.279 0.619141C198.913 0.619141 200.307 1.16972 201.46 2.27089C202.63 3.35484 203.215 4.65387 203.215 6.16797C203.215 7.69927 202.63 9.01551 201.46 10.1167C200.307 11.2006 198.913 11.7426 197.279 11.7426Z" fill="black"/>
<path d="M170.646 57.2692C166.585 57.2692 163.093 56.4089 160.168 54.6883C157.26 52.9506 155.023 50.5418 153.458 47.462C151.909 44.3821 151.135 40.8378 151.135 36.8289C151.135 32.7683 151.918 29.2068 153.483 26.1441C155.066 23.0643 157.312 20.6641 160.219 18.9436C163.127 17.2058 166.585 16.3369 170.594 16.3369C174.053 16.3369 177.081 16.9649 179.679 18.2209C182.277 19.4769 184.333 21.2405 185.847 23.5117C187.361 25.7828 188.196 28.4497 188.351 31.5123H177.976C177.683 29.5337 176.909 27.9421 175.653 26.7377C174.414 25.5161 172.788 24.9053 170.775 24.9053C169.072 24.9053 167.583 25.3699 166.31 26.299C165.054 27.2109 164.073 28.5443 163.368 30.2993C162.663 32.0543 162.31 34.1792 162.31 36.674C162.31 39.2032 162.654 41.3539 163.342 43.1261C164.048 44.8983 165.037 46.249 166.31 47.1781C167.583 48.1072 169.072 48.5717 170.775 48.5717C172.031 48.5717 173.158 48.3136 174.156 47.7975C175.171 47.2813 176.006 46.5329 176.659 45.5521C177.33 44.5542 177.769 43.3584 177.976 41.9647H188.351C188.179 44.9929 187.353 47.6598 185.873 49.9654C184.411 52.2537 182.389 54.0431 179.808 55.3336C177.227 56.624 174.173 57.2692 170.646 57.2692Z" fill="black"/>
<path d="M122.153 33.577V56.4949H111.159V16.8531H121.637V23.8472H122.101C122.979 21.5416 124.45 19.7178 126.515 18.3758C128.579 17.0165 131.083 16.3369 134.025 16.3369C136.778 16.3369 139.178 16.9391 141.226 18.1435C143.273 19.3479 144.865 21.0685 146 23.3052C147.136 25.5247 147.704 28.1744 147.704 31.2542V56.4949H136.709V33.2157C136.726 30.7897 136.107 28.897 134.851 27.5378C133.595 26.1613 131.866 25.4731 129.663 25.4731C128.184 25.4731 126.876 25.7914 125.74 26.428C124.622 27.0646 123.745 27.9938 123.108 29.2154C122.489 30.4198 122.17 31.8736 122.153 33.577Z" fill="black"/>
<path d="M89.4224 57.2691C85.3447 57.2691 81.8347 56.4432 78.8926 54.7914C75.9676 53.1225 73.7137 50.7653 72.1307 47.7199C70.5478 44.6573 69.7563 41.0355 69.7563 36.8545C69.7563 32.7768 70.5478 29.198 72.1307 26.1182C73.7137 23.0384 75.9418 20.6382 78.8151 18.9176C81.7057 17.1971 85.0952 16.3368 88.9837 16.3368C91.5989 16.3368 94.0335 16.7583 96.2875 17.6014C98.5586 18.4273 100.537 19.6747 102.223 21.3436C103.927 23.0126 105.252 25.1117 106.198 27.6409C107.144 30.1529 107.617 33.0951 107.617 36.4674V39.487H74.1438V32.6736H97.2682C97.2682 31.0906 96.9241 29.6884 96.2359 28.4668C95.5476 27.2452 94.5927 26.2903 93.3711 25.602C92.1667 24.8966 90.7645 24.5439 89.1643 24.5439C87.4954 24.5439 86.0157 24.931 84.7253 25.7053C83.4521 26.4623 82.4541 27.486 81.7315 28.7765C81.0089 30.0497 80.6389 31.4692 80.6217 33.0349V39.5128C80.6217 41.4743 80.983 43.169 81.7057 44.5971C82.4455 46.0252 83.4865 47.1263 84.8285 47.9006C86.1706 48.6748 87.7621 49.062 89.6031 49.062C90.8247 49.062 91.9431 48.8899 92.9582 48.5458C93.9733 48.2017 94.8422 47.6855 95.5648 46.9973C96.2875 46.309 96.8381 45.466 97.2166 44.468L107.385 45.1391C106.869 47.5823 105.811 49.7158 104.211 51.5396C102.628 53.3462 100.58 54.757 98.0683 55.7722C95.5734 56.7701 92.6915 57.2691 89.4224 57.2691ZM84.7769 11.7429L90.2483 0H100.417L92.5452 11.7429H84.7769Z" fill="black"/>
<path d="M50.2466 57.2692C46.186 57.2692 42.6933 56.4089 39.7683 54.6883C36.8606 52.9506 34.6238 50.5418 33.0581 47.462C31.5096 44.3821 30.7354 40.8378 30.7354 36.8289C30.7354 32.7683 31.5182 29.2068 33.0839 26.1441C34.6668 23.0643 36.9122 20.6641 39.8199 18.9436C42.7277 17.2058 46.186 16.3369 50.195 16.3369C53.6533 16.3369 56.6815 16.9649 59.2795 18.2209C61.8776 19.4769 63.9337 21.2405 65.4478 23.5117C66.9619 25.7828 67.7963 28.4497 67.9512 31.5123H57.5762C57.2837 29.5337 56.5094 27.9421 55.2534 26.7377C54.0146 25.5161 52.3887 24.9053 50.3756 24.9053C48.6723 24.9053 47.184 25.3699 45.9107 26.299C44.6547 27.2109 43.674 28.5443 42.9686 30.2993C42.2631 32.0543 41.9104 34.1792 41.9104 36.674C41.9104 39.2032 42.2545 41.3539 42.9428 43.1261C43.6482 44.8983 44.6375 46.249 45.9107 47.1781C47.184 48.1072 48.6723 48.5717 50.3756 48.5717C51.6316 48.5717 52.7586 48.3136 53.7565 47.7975C54.7717 47.2813 55.6061 46.5329 56.26 45.5521C56.931 44.5542 57.3697 43.3584 57.5762 41.9647H67.9512C67.7791 44.9929 66.9533 47.6598 65.4736 49.9654C64.0111 52.2537 61.9894 54.0431 59.4086 55.3336C56.8277 56.624 53.7737 57.2692 50.2466 57.2692Z" fill="black"/>
<path d="M16.1678 56.4945V16.8527H27.1622V56.4945H16.1678ZM21.6908 11.7426C20.0563 11.7426 18.654 11.2006 17.4841 10.1167C16.3313 9.01551 15.7549 7.69927 15.7549 6.16797C15.7549 4.65387 16.3313 3.35484 17.4841 2.27089C18.654 1.16972 20.0563 0.619141 21.6908 0.619141C23.3254 0.619141 24.719 1.16972 25.8718 2.27089C27.0418 3.35484 27.6268 4.65387 27.6268 6.16797C27.6268 7.69927 27.0418 9.01551 25.8718 10.1167C24.719 11.2006 23.3254 11.7426 21.6908 11.7426Z" fill="black"/>
<path d="M10.9944 3.63965V56.4955H0V3.63965H10.9944Z" fill="black"/>
<path d="M301.587 54.242C306.165 54.242 310.599 48.7913 314.087 41.2329H315.541C311.834 50.6809 306.238 57.4398 299.842 57.4398C295.046 57.4398 292.139 53.7333 292.139 47.5558C292.139 35.9275 302.095 17.3223 312.197 17.3223C315.613 17.3223 317.721 19.6479 317.721 23.0637C317.721 30.6221 307.837 38.5439 297.517 40.2154C296.863 42.8318 296.499 45.3755 296.499 47.4104C296.499 51.8437 298.534 54.242 301.587 54.242ZM311.543 19.5752C305.947 19.5752 300.569 29.2412 298.025 38.1805C306.529 36.2909 314.16 30.2587 314.16 23.0637C314.16 20.9561 313.578 19.5752 311.543 19.5752Z" fill="black"/>
<path d="M245.131 56.495H240.989L251.236 26.6976C251.89 24.808 252.69 22.4096 252.69 21.5375C252.69 20.4474 252.254 20.1567 251.6 20.1567C249.129 20.1567 245.422 24.8806 242.951 29.2412H241.425C244.405 23.4998 249.347 17.4676 253.925 17.4676C255.815 17.4676 256.76 18.9938 256.76 20.7381C256.76 22.2643 256.033 24.2266 255.161 26.6976L250.364 39.9247H250.945C258.94 23.0637 263.882 17.3223 268.679 17.3223C271.004 17.3223 272.385 19.1392 272.385 21.6829C272.385 25.8981 268.969 32.5117 265.699 39.9247H266.208C274.202 23.0637 279.871 17.3223 284.74 17.3223C287.429 17.3223 288.883 19.0665 288.883 21.8282C288.883 27.7877 282.705 39.3433 278.926 48.7186C278.563 49.8088 277.909 51.4077 277.909 52.3524C277.909 53.4426 278.199 54.1694 279.362 54.1694C282.342 54.1694 285.612 49.1547 288.156 43.6312H289.682C287.138 49.8814 282.487 56.9311 277.618 56.9311C274.783 56.9311 273.766 55.3322 273.766 53.1519C273.766 51.8437 274.42 50.2448 275.001 48.6459C279.144 38.1805 284.377 27.279 284.377 23.3544C284.377 21.5375 283.795 20.6654 282.633 20.6654C279.943 20.6654 274.42 25.8981 267.152 40.7969C265.045 45.1575 262.864 50.3902 260.466 56.495H256.324L262.646 40.2154C265.408 33.0931 268.315 26.2615 268.315 23.3544C268.315 21.5375 267.734 20.6654 266.571 20.6654C263.155 20.6654 255.742 29.3866 245.131 56.495Z" fill="black"/>
</svg>
