<svg width="59" height="54" viewBox="0 0 59 54" fill="none" xmlns="http://www.w3.org/2000/svg">
<path d="M10.9944 0V52.8558H0V0H10.9944Z" fill="black"/>
<path d="M14.2314 52.8554H10.0889L20.3363 23.0579C20.9904 21.1683 21.7898 18.77 21.7898 17.8979C21.7898 16.8077 21.3538 16.517 20.6997 16.517C18.2287 16.517 14.5221 21.241 12.0511 25.6016H10.5249C13.5047 19.8601 18.4467 13.828 23.0253 13.828C24.9149 13.828 25.8597 15.3542 25.8597 17.0984C25.8597 18.6246 25.133 20.5869 24.2608 23.0579L19.4642 36.2851H20.0456C28.04 19.4241 32.982 13.6826 37.7787 13.6826C40.1044 13.6826 41.4852 15.4995 41.4852 18.0432C41.4852 22.2585 38.0694 28.8721 34.799 36.2851H35.3077C43.3021 19.4241 48.9709 13.6826 53.8403 13.6826C56.5293 13.6826 57.9828 15.4269 57.9828 18.1886C57.9828 24.1481 51.8053 35.7037 48.0261 45.079C47.6627 46.1691 47.0086 47.768 47.0086 48.7128C47.0086 49.803 47.2994 50.5297 48.4622 50.5297C51.4419 50.5297 54.7124 45.515 57.2561 39.9916H58.7823C56.2386 46.2418 51.5873 53.2914 46.7179 53.2914C43.8835 53.2914 42.8661 51.6925 42.8661 49.5122C42.8661 48.2041 43.5202 46.6052 44.1016 45.0063C48.2442 34.5408 53.4769 23.6393 53.4769 19.7148C53.4769 17.8979 52.8955 17.0257 51.7326 17.0257C49.0436 17.0257 43.5202 22.2585 36.2525 37.1572C34.1449 41.5178 31.9646 46.7505 29.5662 52.8554H25.4237L31.7465 36.5758C34.5082 29.4535 37.4153 22.6219 37.4153 19.7148C37.4153 17.8979 36.8339 17.0257 35.6711 17.0257C32.2553 17.0257 24.8422 25.747 14.2314 52.8554Z" fill="black"/>
</svg>
